<svg id="Scene_Plants" data-name="Scene/Plants" xmlns="http://www.w3.org/2000/svg" width="1129.499" height="514.352" viewBox="0 0 1129.499 514.352">
  <defs>
    <style>
      .cls-1 {
        opacity: 0.36;
      }

      .cls-2 {
        fill: #d8ebb5;
      }

      .cls-3, .cls-4, .cls-6 {
        fill: #f4eec7;
      }

      .cls-3, .cls-5 {
        opacity: 0.38;
      }

      .cls-4 {
        opacity: 0.2;
      }
    </style>
  </defs>
  <g id="Background_Shape_2" data-name="Background Shape 2" class="cls-1" transform="translate(0 297.084)">
    <path id="Background_Shape" data-name="Background Shape" class="cls-2" d="M1039.528,135.7c15.16,60.653-352.484,100.215-668.924,72.606S-91,72.881,60,15.432,1024.368,75.049,1039.528,135.7Z" transform="translate(0)"/>
  </g>
  <path id="Leaf_Bottom" data-name="Leaf Bottom" class="cls-3" d="M193,260a46.774,46.774,0,0,1-1,6A17.922,17.922,0,0,0,193,260Zm-10.831-47.012c-5.818-12.326-14.116-22.979-23.677-32.458,1.911-6.943,20.49-17.785,8.743-23.526-6.238-3.035-12.155,2.853-13.172,8.813-.7,4.1.956,9.109,2.633,12.961q-4.5-4.328-9.309-8.347c-4.416-3.7-8.927-7.286-13.477-10.821,6.819-7.114,12.6-26.731,2.816-29.377-14.443-3.894-6.229,22.02-4.981,26.893a.772.772,0,0,0,.649-.285c-.056.455-.123.942-.211,1.435-8.7-6.726-17.527-13.3-26.087-20.21.708-.583,1.77-2.724,2.632-3.88a42.082,42.082,0,0,0,5.1-8.312c2.052-4.734,3.879-12.21-2.344-14.605-6.768-2.611-9.474,5.878-9.26,10.847.148,3.435,1.255,6.649,1.918,9.99.208,1.042-.131,5.8,1.193,3.695a10.144,10.144,0,0,0,.044,1.682q-2.3-1.87-4.581-3.779a1.777,1.777,0,0,0,.1-.578,1.718,1.718,0,0,0-2.542-1.488q-3.006-2.572-5.947-5.23c-4.145-3.764-8.351-7.638-12.536-11.6.822-.784.427-1.79,1.19-2.616s2.322-1.341,3.228-2.119a22.871,22.871,0,0,0,5.4-7.423c2.125-4.459,4.688-13.714-2.292-15.421-7.2-1.762-10.332,7.182-10.5,12.68a139.867,139.867,0,0,0,2.051,14.018c-7.744-7.367-15.382-15.03-22.35-22.869,1.982-.122,7.39-4.478,8.468-5.647,2.631-2.849,6.725-9.053,1.7-11.959-4.468-2.578-9.583,1.763-11.225,5.806a55.526,55.526,0,0,0-.965,9.49c-2.888-3.328-5.653-6.682-8.238-10.057q-2.587-3.366-4.874-6.922a3.235,3.235,0,0,0,.9-.988c7.144-1.6,15.745-13.329,7.073-16.8-4.128-1.65-8.3,2.42-10.109,5.668a41.933,41.933,0,0,0-1.256,6.512A135.132,135.132,0,0,1,27.287,41.24a1.576,1.576,0,0,0,1.152-1.525c3.395-2.178,6.071-3.984,8.313-7.949,1.393-2.462,3.841-8.051-.688-9.14-5.894-1.417-9.075,7.638-9.32,12.029-.029.509.05,1.984.14,3.334a1.95,1.95,0,0,0-.6.042c-1.617-5.363-2.969-10.811-4.1-16.278,3.115-1.185,2.79-17.85.557-20.108C17.74-3.41,14.816,4.425,15.281,8.461,15.828,13.22,18.219,17.45,21,21.17c.3.393.218.378.259-.194a1.14,1.14,0,0,0,.307.624,72.434,72.434,0,0,0,.115,7.324,169.525,169.525,0,0,0,3.175,18.948q.513,2.272,1.137,4.5a36.977,36.977,0,0,0-7.568-4.316c-3.568-1.38-9.029-2.785-12.353.043a5.834,5.834,0,0,0-.208,8.733c2.958,2.978,8.055,2.6,11.848,2.092,1.715-.228,10.876-1.447,8.617-2.838a7.435,7.435,0,0,1,.915.379q.36,1.089.75,2.17c-.052.034-.1.071-.153.105.061-.031.1-.063.157-.094A84.537,84.537,0,0,0,38.569,78.931a19.879,19.879,0,0,0-4.828-1.022c-4.831-.355-14.731,3.9-9.028,10.012,5.468,5.856,13.137-1.136,18.931-2.348A273.561,273.561,0,0,0,63.3,107.418a1.558,1.558,0,0,0-.913.845c-2.7-1.2-5.533-2.958-7.991-3.347-3.547-.56-10.764-.634-13.25,2.645-3.059,4.032.6,6.985,4.492,7.523,5.643.781,12.812-2.332,18.091-4.458a1.777,1.777,0,0,0,1.658-.651c.117-.046.233-.09.347-.133C72.747,116.785,80,123.473,87.2,130.009h-.222a18.6,18.6,0,0,0-5.912-2.331c-4.862-.919-10.509-.628-14.224,3.049-3.7,3.661-4.757,9.782-.538,13.455,8.443,7.352,19.353-10.992,23.367-11.945,7.317,6.569,15.008,12.661,22.809,18.617a13.3,13.3,0,0,0-2.645-.4c-7.359-.317-24.077,9.562-14.627,17.923,8.235,7.286,16.522-8,22.562-13.515,7.347,5.547,14.73,11.051,21.927,16.795a20.034,20.034,0,0,0-11.392.67c-4.094,1.477-10.643,4.97-7.718,10.449,2.974,5.573,10.9,2.551,15,.517,2.238-1.109,6.655-4.688,10.613-6.305,11.516,9.785,21.619,20.7,29.519,33.763a120.977,120.977,0,0,1,11.693,26.035c1.84,5.8,5.376,15.524,5.173,23.212C194.667,244.524,188.5,226.391,182.168,212.988ZM21,29.766c-.613,0-2.912-6.215-3.636-7.135a20.724,20.724,0,0,0-8.2-5.945C4.129,14.508-2.268,17.674.8,23.966,3.248,28.989,9.881,30,15.626,30,17.588,30,19.447,29.882,21,29.766Z" transform="translate(795.867 75.731) rotate(3)"/>
  <path id="Leaf_Top" data-name="Leaf Top" class="cls-4" d="M0,187.541a21.86,21.86,0,0,0,1,4A8.448,8.448,0,0,1,0,187.541Zm8-33.535a83.426,83.426,0,0,1,17.288-23.47c-1.4-5.019-14.961-12.859-6.384-17.011,4.555-2.194,8.875,2.063,9.617,6.373.509,2.961-.7,6.586-1.922,9.372q3.289-3.129,6.8-6.035c3.225-2.678,6.518-5.269,9.84-7.825-4.979-5.144-9.2-19.328-2.056-21.242,10.545-2.816,4.548,15.923,3.636,19.446a.568.568,0,0,1-.473-.206c.041.328.09.681.153,1.037,6.357-4.864,12.8-9.62,19.048-14.613a27.139,27.139,0,0,1-1.922-2.806,30.332,30.332,0,0,1-3.721-6.01c-1.5-3.424-2.832-8.829,1.712-10.561,4.942-1.888,6.917,4.251,6.761,7.843-.108,2.485-.916,4.809-1.4,7.224-.151.753.1,4.2-.87,2.671a7.325,7.325,0,0,1-.032,1.216q1.683-1.351,3.344-2.732a1.284,1.284,0,0,1-.071-.418A1.256,1.256,0,0,1,69.2,95.182q2.2-1.859,4.342-3.781c3.026-2.722,6.1-5.523,9.153-8.389-.6-.567-.311-1.294-.868-1.892s-1.7-.969-2.357-1.531a16.543,16.543,0,0,1-3.941-5.368C73.979,71,72.108,64.3,77.2,63.071c5.253-1.274,7.544,5.193,7.667,9.169a100.122,100.122,0,0,1-1.5,10.135c5.655-5.326,11.232-10.868,16.32-16.536-1.447-.088-5.4-3.238-6.183-4.082-1.921-2.06-4.91-6.547-1.24-8.648,3.262-1.863,7,1.274,8.2,4.2a39.661,39.661,0,0,1,.7,6.862c2.109-2.407,4.127-4.832,6.016-7.273q1.887-2.433,3.559-5a2.342,2.342,0,0,1-.661-.715c-5.216-1.157-11.5-9.638-5.164-12.146,3.014-1.193,6.06,1.75,7.381,4.1a30.025,30.025,0,0,1,.917,4.709,97.142,97.142,0,0,0,7.873-18.019,1.141,1.141,0,0,1-.841-1.1c-2.479-1.575-4.432-2.881-6.07-5.748-1.017-1.78-2.8-5.82.5-6.608,4.3-1.024,6.626,5.523,6.806,8.7.021.369-.037,1.435-.1,2.41a1.454,1.454,0,0,1,.441.032c1.181-3.878,2.168-7.817,3-11.771-2.273-.857-2.037-12.906-.407-14.539,3.645-3.657,5.781,2.009,5.442,4.928a19.273,19.273,0,0,1-4.175,9.189c-.217.284-.158.274-.189-.14a.816.816,0,0,1-.224.451,51.727,51.727,0,0,1-.085,5.3,121.486,121.486,0,0,1-2.317,13.7q-.375,1.644-.831,3.255a27.1,27.1,0,0,1,5.526-3.12c2.606-1,6.593-2.013,9.02.032a4.191,4.191,0,0,1,.151,6.314c-2.16,2.153-5.881,1.877-8.65,1.513-1.253-.165-7.942-1.046-6.292-2.052a5.523,5.523,0,0,0-.669.274q-.263.787-.547,1.569c.039.025.071.051.112.076-.044-.022-.076-.046-.114-.068a60.926,60.926,0,0,1-7.721,14.666,14.65,14.65,0,0,1,3.525-.74c3.528-.257,10.757,2.822,6.592,7.24-3.993,4.234-9.593-.822-13.823-1.7a198.561,198.561,0,0,1-14.353,15.8,1.136,1.136,0,0,1,.667.611c1.969-.864,4.041-2.138,5.836-2.42,2.589-.4,7.859-.458,9.674,1.912,2.233,2.916-.439,5.051-3.281,5.441-4.119.564-9.355-1.687-13.209-3.224a1.3,1.3,0,0,1-1.21-.471l-.254-.1C87.9,84.444,82.6,89.281,77.341,94.007H77.5a13.667,13.667,0,0,1,4.316-1.686c3.55-.664,7.674-.454,10.385,2.2s3.473,7.073.394,9.729c-6.165,5.317-14.131-7.948-17.062-8.636-5.342,4.749-10.958,9.155-16.654,13.461a9.732,9.732,0,0,1,1.931-.286c5.373-.229,17.58,6.913,10.68,12.959-6.013,5.269-12.064-5.787-16.475-9.772-5.365,4.011-10.755,7.991-16.01,12.144a14.766,14.766,0,0,1,8.318.484c2.99,1.068,7.771,3.594,5.636,7.556-2.172,4.028-7.958,1.843-10.955.373-1.633-.8-4.858-3.39-7.748-4.559a100.276,100.276,0,0,0-21.554,24.412,87.074,87.074,0,0,0-8.537,18.825C2.827,175.412.246,182.441.393,188-1.122,176.809,3.383,163.7,8,154.006ZM125.252,21.058c.437,0,2.08-4.441,2.6-5.1a14.806,14.806,0,0,1,5.857-4.246c3.6-1.555,8.166.707,5.975,5.2-1.75,3.588-6.489,4.31-10.594,4.31C127.687,21.225,126.36,21.141,125.252,21.058Z" transform="translate(16.027 34.476) rotate(-3)"/>
  <g id="Top_Leaves" data-name="Top Leaves" class="cls-5" transform="translate(884.946)">
    <path id="Leaf" class="cls-6" d="M79.46,129.914c.238-10.386-4.017-19.958-8.727-28.992-9.169-17.587-13.755-28.109-12.273-49,.872-12.284,1.914-25.263-4.356-36.418C49.539,7.385,39.963-1.305,29.851.164,13.844,3.81,4.908,19.062,1.482,34.206c-4.246,18.77.616,32.774,14.79,44.8,7.987,6.775,12.492,13.754,14.67,24.072,1.743,8.251,1.248,17.713,4.229,25.648,4.457,11.862,12.5,19.106,24.608,21.309-4.368-23.512-10.5-47.806-20.343-69.6-.883-2.157-7.23-11.377-4.589-13.706,2.909-2.564,7.71,12.178,7.672,12.086,2.789,6.551,5.142,13.314,7.4,20.1-.012,0-.025,0-.038,0q3.5,10.459,6.783,21.109C57.512,123,58.3,126,59,129.028c1.03,4.449,1.152,16.166,4.073,19.645a6.3,6.3,0,0,0,1.9,1.586c1.17,4.906,2.262,9.823,3.219,14.75,2.5,12.868,3.944,26.067,2.324,39.152-.473,3.819-5.332,17.1-3.722,20.492,2.943,6.2,4.6-3.362,5.226-6.207,5.193-23.562,3.316-45.683-2.35-68.751,5.209-3.588,9.687-15.573,9.784-19.781" transform="matrix(0.951, -0.309, 0.309, 0.951, 98.917, 24.557)"/>
    <path id="Leaf-2" data-name="Leaf" class="cls-6" d="M11.784.111c7.6,1.112,14.777,10.72,18.317,17.126,4.381,7.927,7.437,16.971,9.739,25.678,3.792,14.343,4.3,30.263,4.352,44.953.006,1.77.375,23.393-2.153,23.039-2.5-.351-.918-22.8-1.132-27.444-.455-9.919.225-19.7-2.1-29.494A93.487,93.487,0,0,0,26.4,25.515c-.716-1.124-2.232-5.3-3.954-4.338-1.684.944,2.981,6.511,3.644,7.593a95.883,95.883,0,0,1,7.078,14.061A74.094,74.094,0,0,1,38.7,71.283c-5.785.888-10.825-2.5-12.766-8.144-1.677-4.879-1.84-10.554-3.745-15.167a22.5,22.5,0,0,0-5.95-8.157C9.511,33.8,2.484,32.293.478,22.306-1.1,14.477.858-1.48,11.784.111" transform="matrix(0.53, -0.848, 0.848, 0.53, 46.792, 145.096)"/>
    <path id="Leaf_Me_Alone_" data-name="Leaf Me Alone!" class="cls-6" d="M14.368,55a6.893,6.893,0,0,0,4.674-1.624,9.265,9.265,0,0,0,2.518-4c1.146-3.267,1.255-7.284,1.327-9.943a39.821,39.821,0,0,1,1.437-10.722,18.817,18.817,0,0,1,5.87-8.888c.756-.647,1.562-1.262,2.342-1.857.692-.528,1.407-1.074,2.084-1.639l.307-.256.02-.016c2.181-1.813,4.435-3.688,4.711-6.653a4.6,4.6,0,0,0-.788-3.59,3.464,3.464,0,0,0-2.711-.96,11.231,11.231,0,0,0-2.3.278c-.121.026-.446.148-.9.316A17.682,17.682,0,0,1,28.4,6.723c-.353,0-.584-.079-.687-.235a.671.671,0,0,1,.032-.63c.264-.627,1.17-1.18,2.692-1.644,3.061-.33,5.952-.626,7.674-.626a5.755,5.755,0,0,1,1.116.079A16.933,16.933,0,0,1,47.447,8.2a28.866,28.866,0,0,1,5.67,8.09A61.282,61.282,0,0,1,58.379,35.2c.135,1.14.258,2.385.374,3.8H61.1a77.285,77.285,0,0,0-.884-8.915,55.666,55.666,0,0,0-6.23-18.027A26.821,26.821,0,0,0,47.9,4.729,17.014,17.014,0,0,0,39.455.979,12.676,12.676,0,0,0,38.1.93c-.889,0-1.957.034-3.009.1A7.886,7.886,0,0,0,31.752.051C31.286.017,30.807,0,30.33,0a24.431,24.431,0,0,0-8.04,1.457,34.771,34.771,0,0,0-7.679,3.864A39.976,39.976,0,0,0,7.975,10.83a33.34,33.34,0,0,0-4.912,6.393A24.464,24.464,0,0,0,0,29.525,39.448,39.448,0,0,0,2.145,42.173a28.844,28.844,0,0,0,4.3,8.357c2.307,2.933,4.936,4.436,7.813,4.469Z" transform="translate(0 40.731)"/>
  </g>
</svg>
