<svg xmlns="http://www.w3.org/2000/svg" width="917.813" height="372.67" viewBox="0 0 917.813 372.67">
  <defs>
    <style>
      .cls-1 {
        opacity: 0.5;
      }

      .cls-2 {
        fill: #639a67;
      }

      .cls-3 {
        fill: #d8ebb5;
        opacity: 0.44;
      }
    </style>
  </defs>
  <g id="Group_45" data-name="Group 45" transform="translate(-280 -769.33)">
    <g id="Cards" class="cls-1" transform="translate(1028 769)">
      <path id="Fill_173" data-name="Fill 173" class="cls-2" d="M53.307.032Q40.671.174,28.055.969c-8,.507-16.67.122-24.536,1.672-2.233.44-5.25,2.475-2.281,4.714,2.087,1.574,9.724-.237,12.216-.39C22.634,6.4,31.818,5.726,41.01,5.4c8.7-.308,17.4-.416,26.11-.5,1.329-.013,3.536-.439,4.859-.053,1.9.555,1.451.706,1.593,3.12.258,4.374.187,8.764.1,13.142-.084,4.237-.241,8.473-.225,12.712.011,3.024-.956,9.033.561,11.66,2.184,3.78,4.45-.326,4.613-2.838.312-4.8.172-9.668.174-14.479,0-4.516.033-9.031-.126-13.544-.115-3.26.351-8.951-1.406-11.915C75.475-.317,71.169.334,68.026.19c-4.9-.225-9.813-.21-14.719-.159" transform="translate(2.202 0.33)"/>
      <path id="Fill_171" data-name="Fill 171" class="cls-2" d="M1.373,2.563C1.383,11.047.4,19.475.126,27.949c-.126,3.9-.382,8.175.6,12,.995,3.862,4.155,4.7,4.519.387.737-8.73.556-17.783,1.13-26.584.2-3.107,1.521-8.8.29-11.711-1.084-2.563-5.3-3.054-5.3.522" transform="translate(0.536 3.247)"/>
      <path id="Fill_175" data-name="Fill 175" class="cls-2" d="M78.11.013C63.48,1.949,48.186,1.243,33.451,1.548c-7.069.146-14.137.155-21.207.229C9.777,1.8,3.511.864,1.377,2.251c-3.4,2.208.289,3.912,2.538,3.961,13.952.306,28.06-.336,42.009-.794,6.267-.206,12.555-.306,18.806-.839A66.285,66.285,0,0,0,76.52,2.9c.8-.221,2.53-.175,2.708-1.261.11-.672-.089-1.768-1.118-1.626" transform="translate(2.796 43.195)"/>
      <path id="Fill_177" data-name="Fill 177" class="cls-2" d="M18.368.429C14.3.453,2.049-1.436.365,2.529-1.88,7.817,6.877,6.583,9.233,6.522c5.349-.137,10.7-.152,16.046-.15,5.25,0,10.5-.032,15.749-.156,1.521-.037,5.061.595,5.935-1.237a2.306,2.306,0,0,0-1.087-3.226c-2.951-1.773-10.616-.745-14.07-.9C27.333.642,22.846.429,18.368.429" transform="translate(1.703 55.111)"/>
      <path id="Fill_179" data-name="Fill 179" class="cls-2" d="M10.541.264C8.218.4,3.517-.555,1.436.508-.93,1.717-.1,3.61,1.946,4.441c1.415.576,7.217.274,8.6-.393,1.436-.7,3.06-3.972,0-3.784" transform="translate(58.995 56.255)"/>
      <path id="Fill_181" data-name="Fill 181" class="cls-2" d="M2.047.008C-.435.689.318,14.779.254,17.013c-.175,6.12-.863,13.817,1.17,19.71,1.3,3.757,3.787,3.248,3.363-.708-.373-3.472-1.012-6.9-1.289-10.4C2.872,17.71,2.021,9.276,2.612,1.363c.252.46,2.606,4.725,3.16,4.407C5.6,5.868,3.056-.258,2.047.008" transform="translate(92.966 6.634)"/>
      <path id="Fill_183" data-name="Fill 183" class="cls-2" d="M31.422.077C26.4.151,21.377.24,16.356.379,12.364.49,6.09-.165,2.429,1.514c-4.36,2-2.291,6.455,1.8,6.549,3.622.084,7.485-.733,11.141-.859,9.873-.338,19.764-.41,29.642-.495,8.933-.077,18.246.876,27.1-.466,1.313,11.663-2.239,23.375-1.031,35.172.187,1.831.1,4.418,2.435,4.835,2.943.527,3.064-2.388,3.175-4.475.319-5.959.146-11.923.582-17.89.4-5.53,1.2-11.181.528-16.72C76.978.35,73.713.9,67.939.613,55.746.015,43.629-.1,31.422.077" transform="translate(91.508 1.377)"/>
      <path id="Fill_185" data-name="Fill 185" class="cls-2" d="M9.082.145C6.522.209,2.272-.58.632,1.874c-1.706,2.553.318,4.78,2.8,5.3,2.937.62,6.766-.23,9.814-.239,3.174-.009,6.349.026,9.523.039,13.608.053,27.275.259,40.873-.3,1.9-.078,7.289.559,8.6-1.263,1.167-1.616.351-3.065-1.186-3.888-2.52-1.35-7.7-.837-10.5-.944C57.1.448,53.63.4,50.167.351,36.495.14,22.752-.194,9.082.145" transform="translate(97.016 42.722)"/>
      <path id="Fill_187" data-name="Fill 187" class="cls-2" d="M19.129,0C14.037.087,8.6-.137,3.561.636-.872,1.315-1.418,5.6,3.354,6.1c4.386.461,9.7-.4,14.109-.683,1.565-.1,3.385.042,4.136-1.688A2.78,2.78,0,0,0,19.129,0" transform="translate(98.48 54.67)"/>
      <path id="Fill_189" data-name="Fill 189" class="cls-2" d="M12.31.353c-2.718.068-10.658-1.1-12,2C-1.935,7.525,8.812,5.561,10.874,5.485,13.473,5.39,23.6,6.907,23.6,2.77c0-4.057-8.8-2.479-11.294-2.417" transform="translate(143.799 54.767)"/>
      <path id="Fill_191" data-name="Fill 191" class="cls-2" d="M.189,3.2C.2,12.606-.39,22.1.468,31.475c.355,3.879.294,11.31,2.541,14.6,1.595,2.334,3.807,2.171,4.678-.632.582-1.874-.349-5.621-.453-7.625-.1-1.924-.217-3.847-.306-5.771-.229-4.957-.21-9.907-.142-14.867C6.844,12.923,7.868,7.295,6.9,3.2,6-.61.189-1.5.189,3.2" transform="translate(1.281 77.601)"/>
      <path id="Fill_193" data-name="Fill 193" class="cls-2" d="M92.929.318c-16.313.409-32.663.044-48.961.851-8.038.4-16.045,1.272-24.042,2.144C16,3.742,12.07,4.183,8.147,4.667c-1.184.146-11.019.527-7.32,4.267,1.615,1.633,6.756-.073,8.79-.314,3.938-.465,7.884-.87,11.828-1.287C28.949,6.539,36.463,5.787,44,5.37c17.749-.983,35.572-.688,53.339-1.344,4.806-.177,9.6-.3,14.406-.115,1.262.05,10.54.521,6.512-2.905-1.9-1.621-9.086-.784-11.466-.833-4.62-.1-9.242.029-13.86.145" transform="translate(3.038 72.214)"/>
      <path id="Wireframy_Stuff" data-name="Wireframy Stuff" class="cls-2" d="M.008,56.03c-.379-5.344,13.029-5.335,16.863-5.692,16.461-1.531,33.193-1.209,49.705-.978,7.985.111,15.954.355,23.933-.133s16.211-.359,24.123-1.217c-1.02-3.951-.87-8.892-1.156-12.929-.734-10.365-.537-20.766-1.011-31.141-.208-4.571,6.018-5.264,7.865-1.563,1.866,3.737.653,11.153.774,15.3.279,9.594,2.058,20.335.179,29.823-.654,3.3-3.438,5.035-5.29,3.235l-.008.012c-.7,1.027-2.866,1.025-4.464,1.023-.44,0-.837,0-1.148.02-4.377.3-8.672.8-13.011,1.45a208.9,208.9,0,0,1-25.951,2.308c-17.281.428-34.633.028-51.889,1.211A94.731,94.731,0,0,0,8.179,58.19a26.115,26.115,0,0,1-4.765.779C1.653,58.97.171,58.34.008,56.03Z" transform="translate(5.38 71.403)"/>
      <path id="Fill_199" data-name="Fill 199" class="cls-2" d="M3.33.661C1.126.96-.712,2.847.272,5.239,1.511,8.251,5.2,7.074,7.641,6.883c7.75-.607,15.842.605,23.5-.309,2.091-.25,5.125-1.389,3.247-4.2C32.975.264,27.833.634,25.648.432A116.59,116.59,0,0,0,3.33.661" transform="translate(128.078 78.032)"/>
      <path id="Fill_201" data-name="Fill 201" class="cls-2" d="M11.636.108C8.631.31,1.634.151.367,3.571-1.9,9.706,6.995,7.544,9.7,7.2c3.148-.405,10.568.68,12.244-2.372,3-5.458-7.675-4.9-10.311-4.715" transform="translate(132.852 91.726)"/>
      <path id="Fill_203" data-name="Fill 203" class="cls-2" d="M1.07,1.325a3.941,3.941,0,0,0,0,5.4C2.818,8.472,6.628,8.109,8.925,8.237c3.2.179,12.407,1.874,14-1.9C25.07,1.247,16.736,1.353,14,1.064,10.827.731,3.7-1.3,1.07,1.325" transform="translate(135.689 103.973)"/>
      <path id="Fill_205" data-name="Fill 205" class="cls-2" d="M0,4.114c0,5.473,8.548,5.473,8.548,0C8.548-1.33,0-1.413,0,4.114" transform="translate(24.437 14.045)"/>
      <path id="Fill_207" data-name="Fill 207" class="cls-2" d="M0,4.7c0,6.257,9.736,6.244,9.736,0S0-1.6,0,4.7" transform="translate(40.651 13.52)"/>
      <path id="Fill_209" data-name="Fill 209" class="cls-2" d="M2.12.084C-2.613,1.391,1.747,5.4,3.944,6.318,7.437,7.775,12.2,8.848,15.7,6.665c1.39-.869,2.518-2.024,1.5-3.71-1.085-1.8-2.571-1-4.224-.831A12.96,12.96,0,0,1,7.167,1.63c-1.509-.5-3.4-2-5.047-1.546" transform="translate(28.723 26.456)"/>
      <path id="Fill_211" data-name="Fill 211" class="cls-2" d="M0,2.776c0,3.7,5.748,3.7,5.748,0S0-.925,0,2.776" transform="translate(116.69 15.729)"/>
      <path id="Fill_213" data-name="Fill 213" class="cls-2" d="M0,3.085C0,7.2,6.386,7.2,6.386,3.085S0-1.028,0,3.085" transform="translate(129.402 15.978)"/>
      <path id="Fill_215" data-name="Fill 215" class="cls-2" d="M13.646.179C10.291.612.59,1.6.047,5.73c-.837,6.379,9.793,1.216,12.219.715A35.165,35.165,0,0,1,21.2,6.1c1.694.068,3.946.342,3.769-2.238C24.678-.377,16.578-.2,13.646.179" transform="translate(115.283 27.809)"/>
      <path id="Fill_217" data-name="Fill 217" class="cls-2" d="M4.406.083C1.974.732-1.206,4.935.466,7.507c2.743,4.219,3.952-2.259,5.1-2.882,2.089-1.135,3.784,3.011,5.967.836C14.978,2.03,6.574-.5,4.406.083" transform="translate(40.186 86.731)"/>
      <path id="eye" class="cls-2" d="M9.436,0C6.553.027.466,4.109.035,7.123A2.981,2.981,0,0,0,2.9,10.659c2.629.032,3.464-3.386,5.743-4.1,2.458-.771,2.093,1,4.216,1.925,1.554.674,3.5.392,4.036-1.518C17.91,3.362,12.4-.056,9.436,0" transform="translate(63.014 83.695)"/>
      <path id="Fill_221" data-name="Fill 221" class="cls-2" d="M1.456.445c-4.612,2.7,2.977,8.5,5.607,9.22,3.971,1.093,11.965-.947,12.906-5.8C20.343,1.935,19.135.187,17,.532c-1.754.285-2.88,2.486-4.5,3.274A5.03,5.03,0,0,1,6.492,3.2C4.974,1.891,4.161-1.133,1.456.445" transform="translate(48.924 100.509)"/>
      <path id="Fill_223" data-name="Fill 223" class="cls-2" d="M40.023.393c-4.12.879-8.309.289-12.449,1.115-4.222.843-6.745,2.438-10.667.831l-.553-.234C13.318.8,10.136.411,6.958,2.5c-1.881,1.233-7.589,5.5-6.9,8.1C1.548,16.24,7.972,7.391,9.61,6.529c3.124-1.645,5.265.456,8.481,1.049,3.852.71,6.951-1.325,10.58-2.136,4.244-.948,9.018-1.278,13.335-1.786,1.706-.2,8.166,1.149,8.75-.974C51.757-.964,41.642.05,40.023.393" transform="translate(13.699 140.492)"/>
      <path id="Fill_225" data-name="Fill 225" class="cls-2" d="M16.26,20.2h0c-3.071,0-5.532-.1-7.744-.314A11.824,11.824,0,0,1,4.1,18.859,5.171,5.171,0,0,1,1.561,15.4a49,49,0,0,1-1.4-6.552C-.249,5.565.116,3.623,1.249,3.075a2.643,2.643,0,0,1,1.176-.221c.231,0,.469.015.66.027l.025,0c.208.013.4.026.587.026a2.315,2.315,0,0,0,.416-.032c.991-.182,2-.447,3.075-.727a36.461,36.461,0,0,1,4.265-.934C15.523.666,19.945.293,24.971.076l.062,0C25.844.039,26.764,0,27.755,0a18.916,18.916,0,0,1,5.584.678A5.841,5.841,0,0,1,37.25,3.83c.614,1.431.663,3.746.14,6.516a22.484,22.484,0,0,1-2.1,6.269c-1.759,3.145-5.247,3.578-8.755,3.578-.657,0-1.328-.016-1.92-.029h-.038c-.626-.015-1.217-.028-1.8-.028l-.395,0-1.686.023h-.022C19.231,20.182,17.735,20.2,16.26,20.2ZM4.5,5.153h0c.078.5.131,1.439.191,2.531.153,2.756.362,6.53,1.186,7.459.786.887,3.568.915,5.231.931.414,0,.771.008,1.017.023,2.622.163,5.295.242,7.879.318,1.085.032,2.208.065,3.311.1.575.02,1.35.119,2.17.224a30.515,30.515,0,0,0,3.671.32,5.171,5.171,0,0,0,2.243-.377c1.007-.5,2.157-2.613,2.93-5.384.855-3.067.95-5.77.24-6.886a3.967,3.967,0,0,0-2.4-1.532,14.434,14.434,0,0,0-3.785-.416,60.5,60.5,0,0,0-8.53.847c-.973.146-1.813.272-2.419.333a39.473,39.473,0,0,0-3.979.741A35.075,35.075,0,0,1,6.63,5.434,6.917,6.917,0,0,1,4.5,5.153Z" transform="translate(77.55 137.016)"/>
      <path id="quare" class="cls-2" d="M23.172,24.947h0a126.216,126.216,0,0,1-14.053-.718C6.286,23.913,4.47,23.3,3.23,22.254,1.852,21.086,1.093,19.285.842,16.588c-.058-.626-.162-1.371-.282-2.233C-.015,10.218-.886,3.967,2.327,1.917,4.735.381,9.561.229,13.085.118,13.9.092,14.676.068,15.338.03,15.714.01,16.109,0,16.51,0A52.992,52.992,0,0,1,23.1.566c1.789.228,3.639.465,5.432.541,3.078.131,5.015.375,6.434,1.29,1.437.926,2.289,2.5,2.941,5.448A5.313,5.313,0,0,0,38.3,8.912,3.9,3.9,0,0,1,38.75,10.6a22.43,22.43,0,0,1-.691,4.41c-.152.693-.3,1.346-.394,1.907-.5,2.875-1.544,4.882-3.189,6.134-1.535,1.168-3.638,1.749-6.616,1.827C26.258,24.925,24.681,24.947,23.172,24.947Zm4.2-6.992c-1.8.328-3.7.681-5.977,1.109l-1.124.212c.7.05,1.334.14,1.945.226a14.619,14.619,0,0,0,1.967.193A3.567,3.567,0,0,0,27.367,17.955ZM13.4,17.622h0l-.3.1-1.21.4-.009,0-.819.27c.892.11,1.739.208,2.589.3a2.076,2.076,0,0,1-.247-1.079ZM7.924,14.5a.477.477,0,0,0-.356.108.353.353,0,0,0-.081.272.662.662,0,0,0,.086.495.24.24,0,0,0,.186.075c.261,0,.712-.28,1.339-.833l-.034,0H9.013a3.784,3.784,0,0,1-.55-.06H8.454A3.661,3.661,0,0,0,7.924,14.5ZM23.482,6.876a.314.314,0,0,0-.25.138c-.179.141-.26.227-.247.263,0,.013.021.019.049.019a2.935,2.935,0,0,0,.629-.191c.07-.026.13-.048.172-.062A.579.579,0,0,0,23.482,6.876Zm8.4-1.462c.848,1.231,1.258,1.327,1.363,1.327a.134.134,0,0,0,.142-.14C33.415,6.28,32.922,5.589,31.882,5.414Z" transform="translate(121.937 134.058)"/>
    </g>
    <path id="Background_Shape" data-name="Background Shape" class="cls-3" d="M.811,165.875C17.118,81.9,182.118,129.74,290.29,103.779S526.439-43.085,611.137,16.14s-5.42,202.387-199.679,234.695S-15.5,249.848.811,165.875Z" transform="translate(280 879)"/>
  </g>
</svg>
