<svg xmlns="http://www.w3.org/2000/svg" width="156.177" height="175" viewBox="0 0 156.177 175">
  <defs>
    <style>
      .cls-1 {
        fill: #d8ebb5;
        opacity: 0.5;
      }

      .cls-2 {
        fill: #2b580c;
        font-size: 25px;
        font-family: SourceSansPro-Semibold, Source Sans Pro;
        font-weight: 600;
        letter-spacing: 0.03em;
      }

      .cls-3 {
        fill: #b6381c;
      }

      .cls-3, .cls-4 {
        fill-rule: evenodd;
      }
    </style>
  </defs>
  <g id="Group_51" data-name="Group 51" transform="translate(-6194 -805)">
    <g id="Group_46" data-name="Group 46" transform="translate(6045)">
      <circle id="Ellipse_11" data-name="Ellipse 11" class="cls-1" cx="75" cy="75" r="75" transform="translate(149 830)"/>
      <text id="Demam" class="cls-2" transform="translate(181 948)"><tspan x="0" y="0">Demam</tspan></text>
    </g>
    <g id="Group_1" data-name="Group 1" transform="translate(6216 805)">
      <path id="Path_10" data-name="Path 10" class="cls-3" d="M167.537,138.989c.242-2.245-2.387-8.235-2.323-7.02-4.214-6.5-12.437-9.052-19.532-11.2-15.062-4.972-26.823,1.033-37.406,11.675-6.248,5.836-12.193,12.355-15.329,20.434-6.17,15.412,3.078,32.985,17.143,40.347a37.937,37.937,0,0,1,3.453,1.939c5.814,3.359,12.641,4.521,19.12,5.983,12.12,2.77,27.342,1.45,34.485-10.089,4.845-8.189,3.558-18.117,3.178-27.206C169.756,155.892,168.756,146.893,167.537,138.989Z" transform="translate(-70.82 -105.916)"/>
      <path id="Path_11" data-name="Path 11" class="cls-4" d="M31.931,70.345C39.784,63,51.39,59.447,62,60.069a44.154,44.154,0,0,1,16.48,4.251,29.163,29.163,0,0,1,4.667,2.746c.985.459,1.947.957,2.88,1.5A26.491,26.491,0,0,1,96.619,80.228a30.83,30.83,0,0,1,2.467,7.287l.079.415c.251,1.265.749,2.932.12,4.115a2.282,2.282,0,0,1-2.118,1.213c.18.727.395,1.454.532,2.187l.375,2q.093.5.184,1c.361,1.982.694,3.963.96,5.961q.835,6.241,1.5,12.505.477,4.479.905,8.964l.173,1.793a57.908,57.908,0,0,1,.328,9.3,21.573,21.573,0,0,1-4.511,12.345,16,16,0,0,1,.553,2.143c.276,1.095.635,2.166,1.017,3.229q.268.626.535,1.254l.466,1.109h0l.364.727a15.191,15.191,0,0,1,1.017,2.412,4.718,4.718,0,0,1,.606,8.423,4.523,4.523,0,0,1-4.373-.134,6.48,6.48,0,0,1-3.741.021,6.27,6.27,0,0,1-3.467,1.583,11.71,11.71,0,0,1-5.759-1.064l-.129-.052c-.058-.022-.115-.047-.171-.071a8.819,8.819,0,0,1-5.735-2.426,7.186,7.186,0,0,1-1.255-1.648,7.532,7.532,0,0,1-.213-7.218c-.262.011-.526.022-.787.029-3.489.1-6.985-.079-10.465-.308l-.82-.056c-2.252-.162-5.574-.544-5.637-3.335a.555.555,0,0,1,.7-.53,32.97,32.97,0,0,0,3.863,1.133c1.734.268,3.53.3,5.282.395l.5.028a42.593,42.593,0,0,0,10.668-.389,32,32,0,0,0,7.675-2.646,19.049,19.049,0,0,0,6.027-4.541c3.683-4.249,4.171-10.243,3.992-15.618-.217-6.42-.972-12.831-1.4-19.242l-.192-2.88c-.159-2.4-.3-4.807-.364-7.21-.044-1.754-.016-3.513-.007-5.267,0-.876-.006-1.756.014-2.632.011-.492.069-.974.111-1.455a1.853,1.853,0,0,1-.541-.432,1.811,1.811,0,0,1-.3-.466,2.894,2.894,0,0,1-1.747-1.293A13.871,13.871,0,0,0,92.4,89.167a19.343,19.343,0,0,0-3.908-2.861,41.44,41.44,0,0,0-9.316-3.692c-4.923-1.4-10.037-2.116-15.033-3.238q-2.066,2.881-4.362,5.586a102.566,102.566,0,0,1-16.071,15.108c-1.191.911-2.4,1.81-3.621,2.681q-2.419,3.688-4.9,7.335l-.71,1.041-.011.02c-.1.149-.191.3-.284.446a9.965,9.965,0,0,1-.654.914q-.23.336-.466.672a3.762,3.762,0,0,1,.792.546,1.076,1.076,0,0,1,0,1.495c-1.18,1.362-3.047-.412-4.4-.885-1.47.448-2.7,2.2-3.306,3.535a10.841,10.841,0,0,0-.834,6.338,6.768,6.768,0,0,0,2.974,4.588c.058.035.12.073.18.106,0,0,0,0,0,0,.055.035.113.069.171.1a5.965,5.965,0,0,0,2.477.729c.5.036,1.02.009,1.519.069a10.912,10.912,0,0,1,1.426.419.932.932,0,0,1,.552,1.359c-.168.242-.328.473-.5.679a18.784,18.784,0,0,1,1.49,2.084,27.958,27.958,0,0,1,1.625,2.99c.45.592.88,1.2,1.3,1.812a38.884,38.884,0,0,1,5.28,11.471c1.1,4.029,1.787,8.555.769,12.669-.938,3.783-3.677,6.917-7.73,7.118a7.843,7.843,0,0,1-2.46-.268,12,12,0,0,1-5.754,1.658,7.235,7.235,0,0,1-4.489-1.207,13.72,13.72,0,0,1-4.524,1.1,7.53,7.53,0,0,1-4.513-1.187,14.69,14.69,0,0,1-4.043,2.539,8.737,8.737,0,0,1-8.01-.645,6.56,6.56,0,0,1-2.847-7.145c.665-2.563,2.756-4.444,4.721-6.063l.388-.318c1.943-1.586,3.906-3.121,5.153-5.356a17.725,17.725,0,0,0,1.938-7.808c.284-5.908-.918-11.762-1.284-17.638a91.8,91.8,0,0,1,.661-18.182c1.608-11.7,5.839-23.178,13.494-32.3a46.815,46.815,0,0,1,3.542-3.771A28.057,28.057,0,0,1,31.931,70.345Zm101.825,66.827a.358.358,0,0,1,.12.02.226.226,0,0,1,.066.046l.187.187a.166.166,0,0,1-.217.251l-.018-.016-.193-.193a.2.2,0,0,1-.049-.08.49.49,0,0,1-.011-.1A.119.119,0,0,1,133.757,137.172ZM29.713,119.055c1.778-.539,3.912.743,4.972,2.1a1.648,1.648,0,0,1,0,2.275,1.627,1.627,0,0,1-2.277,0c-.636-.765-1.155-1.825-2.065-2.315-.987-.532-2.308-.4-2.541.9-.04.22-.355.146-.368-.051A3.124,3.124,0,0,1,29.713,119.055Z" transform="translate(0 -59.999)"/>
      <path id="Path_12" data-name="Path 12" class="cls-4" d="M254.838,272.28a1.834,1.834,0,0,1,2.227,2.227c-.292,1.447-1.847,1.943-3.152,1.9-1.479-.051-2.957-.357-4.443-.418-1.527-.063-3.059-.075-4.587-.033a23.247,23.247,0,0,1-4.265.064c-.546-.087-.494-.808-.139-1.064a10.765,10.765,0,0,1,3.665-1.39,29.234,29.234,0,0,1,3.863-.727,37.945,37.945,0,0,1,3.973-.246,12.272,12.272,0,0,0,1.933.019C254.213,272.552,254.519,272.354,254.838,272.28Zm-4.046-18.792c1.675,1.018,4.226,3.391,2.425,5.915-2.12,2.225-5.173-.326-6.678-1.48-1.395-.894-2.962,1.406-1.668,2.45,10.871,8.049,15.283-6.619,6.768-8.081C250.7,252.129,250.353,253.173,250.791,253.487Zm-12.142-7.6a1.543,1.543,0,1,1,.412,3.044c-.466.047-.929.088-1.392.128a2.335,2.335,0,0,1,.091.446c.021.13.037.268.051.426a2.3,2.3,0,0,1-3.457,1.984,2.417,2.417,0,0,1-.883-.875,2.548,2.548,0,0,1-.41-1.315c-1.021.265-2.061.624-3.092.814a1.586,1.586,0,0,1,.111.121c.027.033-.01.1-.05.065l-.517-.115h0c-.159.021-.318.038-.477.048l0-.014h0a.334.334,0,0,1-.245-.569,10.587,10.587,0,0,1,3.629-2.139l1.249-.512A23.9,23.9,0,0,1,238.649,245.887Zm18.02.988a25.037,25.037,0,0,1,4.389-.011c2.473.151,1.436,3.757-.549,2.925a1.416,1.416,0,0,1,.01.387,1.842,1.842,0,0,1-.866,1.51,1.764,1.764,0,0,1-1.766,0,2.056,2.056,0,0,1-.987-1.431,3.424,3.424,0,0,1,0-1.355.983.983,0,0,1,.185-.436c-.138-.035-.277-.068-.416-.1-1.234-.281-2.452-.224-3.683-.4a.157.157,0,0,1-.037-.285A12.307,12.307,0,0,1,256.669,246.874Zm-18.246-11.139a2.084,2.084,0,0,1,2.342.953,2.147,2.147,0,0,1-.324,2.514c-.929,1.084-2.7,1.752-4,2.371l-.1.05c-1.339.646-2.714,1.239-4.107,1.755a37.1,37.1,0,0,1-4.218,1.249,20.434,20.434,0,0,1-2.28.423,12.073,12.073,0,0,1-1.649-.092.084.084,0,0,1-.042-.155c.54-.34.942-.787,1.531-1.1q.921-.491,1.848-.968c1.25-.644,2.454-1.362,3.66-2.083,1.271-.761,2.513-1.562,3.721-2.42A17.851,17.851,0,0,1,238.423,235.735Zm15.087-.69a2.015,2.015,0,0,1,2.417,1.373c.3,1.032-.014,1.254.787,1.992a24.778,24.778,0,0,0,2.02,1.631l1.022.76a29.994,29.994,0,0,0,5.844,3.59c.18.078.076.345-.095.349a20.411,20.411,0,0,1-9.68-1.907,8.341,8.341,0,0,1-3.686-3.014C251.183,238.183,251.211,235.491,253.511,235.046Z" transform="translate(-174.327 -196.193)"/>
      <path id="Path_13" data-name="Path 13" class="cls-4" d="M397.225,197.113a1.3,1.3,0,0,0,.974-1.457c-.156-1.516-1.682-2.635-2.912-3.431-.312-.2-.76-.448-1.2-.731.073.211.145.415.22.6q.627,1.538,1.236,3.08c.274.7.7,2.1,1.681,1.939m-2.062.081a16.524,16.524,0,0,1-1.706-3.71l-.836-2.05a3.246,3.246,0,0,1-.451-1.761.462.462,0,0,1,.781-.232,2.28,2.28,0,0,1,.506.585c.485.253.947.6,1.414.874a18.227,18.227,0,0,1,2.353,1.51c1.373,1.117,2.691,3.066,1.916,4.653a2.269,2.269,0,0,1-3.976.132" transform="translate(-305.185 -160.635)"/>
      <path id="Path_14" data-name="Path 14" class="cls-4" d="M368.288,194.12a.889.889,0,0,0,.666-1c-.107-1.036-1.15-1.8-1.991-2.346-.214-.139-.52-.306-.821-.5.05.144.1.284.151.411q.429,1.052.845,2.106c.187.476.479,1.438,1.15,1.326m-1.41.055a11.313,11.313,0,0,1-1.167-2.537l-.572-1.4a2.221,2.221,0,0,1-.308-1.2.316.316,0,0,1,.534-.159,1.558,1.558,0,0,1,.346.4c.332.173.648.412.967.6a12.493,12.493,0,0,1,1.609,1.033c.939.764,1.84,2.1,1.31,3.182a1.552,1.552,0,0,1-2.719.09" transform="translate(-283.915 -160.226)"/>
    </g>
  </g>
</svg>
