<svg xmlns="http://www.w3.org/2000/svg" width="248.334" height="356.677" viewBox="0 0 248.334 356.677">
  <defs>
    <style>
      .cls-1 {
        fill: #997659;
      }

      .cls-2 {
        fill: #e4e4e4;
      }

      .cls-3 {
        fill: #c81912;
      }

      .cls-4 {
        fill: #b28b67;
      }

      .cls-5 {
        fill: #ff4133;
      }

      .cls-6 {
        fill: #191847;
      }

      .cls-13, .cls-7 {
        fill: none;
        stroke: #7cd4c0;
        stroke-linecap: round;
      }

      .cls-7 {
        stroke-linejoin: round;
      }

      .cls-8 {
        fill: #e87613;
      }

      .cls-9 {
        fill: #dde3e9;
      }

      .cls-10 {
        fill: #ff9b21;
      }

      .cls-11 {
        fill: rgba(0,0,0,0.1);
      }

      .cls-12 {
        fill: #50e3c2;
        stroke: #50e3c2;
      }
    </style>
  </defs>
  <g id="Group_26" data-name="Group 26" transform="translate(0)">
    <g id="Bottom_Standing_Jogging" data-name="Bottom/Standing/Jogging" transform="translate(0 164.682)">
      <path id="Leg" class="cls-1" d="M114.084,0,54.391,99.795,9.639,184.163H0L74.983,0Z" transform="translate(29.561 0)"/>
      <g id="Right_Shoe" data-name="Right Shoe" transform="translate(0 175.392)">
        <path id="shoe" class="cls-2" d="M42.849,4.108a1.607,1.607,0,0,1,2.061,1.083l1.533,5.4a51.607,51.607,0,0,1-.724,6.342H.409s-1.766-5.839,2.039-6.3S8.77,9.79,8.77,9.79L29.83.4A.8.8,0,0,1,30.9.829l1.354,3.284s3.523,1.644,5.725,1.644Z" transform="translate(0 -0.332)"/>
      </g>
      <path id="Pant" class="cls-3" d="M18.589,170.653,0,165.03s12.217-36.521,29.946-80.38S68.028,0,68.028,0h52.5S97.9,51.6,72.554,93.769A716.559,716.559,0,0,1,18.589,170.653Z" transform="translate(33.04 0)"/>
      <path id="Leg-2" data-name="Leg" class="cls-4" d="M39.269,0c5.634,35.069,16.5,79.873,17.525,81.256Q57.82,82.638,130.629,106l-2.082,8.5q-86.824-12.527-91.5-19.438C32.375,88.147,9.039,33.549,0,0Z" transform="translate(108.299 0)"/>
      <path id="Pant-2" data-name="Pant" class="cls-5" d="M116.619,98.649l-3.668,13.69q-64.94,5.7-79.58-8.231T0,0H50.064Q61.931,73.847,63.333,76.947T116.619,98.649Z" transform="translate(105.247)"/>
      <g id="Left_Shoe" data-name="Left Shoe" transform="matrix(-0.174, 0.985, -0.985, -0.174, 248.334, 103.164)">
        <path id="shoe-2" data-name="shoe" class="cls-2" d="M3.594,12.827a1.607,1.607,0,0,1-2.061-1.083L0,6.342A51.607,51.607,0,0,1,.724,0H46.033S47.8,5.839,43.994,6.3s-6.322.841-6.322.841L16.613,16.533a.8.8,0,0,1-1.07-.428l-1.354-3.284s-3.523-1.644-5.725-1.644Z" transform="translate(0 0)"/>
      </g>
    </g>
    <g id="Head_Front_Airy" data-name="Head/Front/Airy" transform="translate(109.906 0)">
      <g id="Head" transform="translate(0 30.527)">
        <path id="Head-2" data-name="Head" class="cls-4" d="M0,0,6.637,30.936C2.936,35.281.43,40.606.849,46.572c1.207,17.191,25.138,13.409,29.792,4.733s4.1-30.686-1.914-32.237c-2.4-.618-7.511.9-12.713,4.032L19.28,0Z" transform="translate(33.74 58.643) rotate(180)"/>
      </g>
      <path id="hair" class="cls-6" d="M11.5,27.864c2.541-.417,9.383-.7,10.645-.7.806,0,1.68.184,2.158-.556.391-.606.248-1.632.365-2.335.136-.817.328-1.624.523-2.429a24.7,24.7,0,0,1,2.564-6.514,20.022,20.022,0,0,1,9.491-8.592A30.475,30.475,0,0,1,51.652,4.752c5.171.419,9.853,2.126,14.735,3.733A30.881,30.881,0,0,0,80.78,9.871c4.9-.753,8.608-3.411,12.743-5.933C97.757,1.356,102.6-.333,107.6.055a27.11,27.11,0,0,1,12.841,4.869c3.615,2.411,6.6,5.312,8.281,9.395,1.811,4.392,1.81,9.212-1.169,13.094-4.318,5.626-12.333,7.081-19,6.936A36.3,36.3,0,0,1,97.265,32.28c-4.857-1.708-9.053-4.6-13.6-6.953a35.382,35.382,0,0,0-6.646-2.66c-2.242-.633-4.45-.923-6.48.431a30.6,30.6,0,0,1-6.528,3.737,21.052,21.052,0,0,1-7.363,1.322c-4.885-.038-9.7-1.56-14.444-2.579-3.869-.831-8.008-1.66-11.952-.861-1.646.333-4.05,1.022-4.644,2.732,10,1.813,13.934,14.187,11.114,23.27-1.522,4.9-10.673,10.634-14.231,8.056-2.254-1.633-.886-3.776,0-5.192,1.7-2.71,2.276-6.191-.862-8.078-2.707-1.627-5.553,2.237-5.607,2.233-.744-.059-7.173-3.694-11.6-9C.052,39-.611,36.118.433,33.761S7.988,28.44,11.5,27.864Z" transform="translate(2.588)"/>
    </g>
    <path id="Path_2" data-name="Path 2" class="cls-7" d="M-4910.5,3961.086l-11.011,3.611Z" transform="translate(5039.294 -3913.621)"/>
    <g id="Body_Hoodie" data-name="Body/Hoodie" transform="translate(37.851 70.281)">
      <path id="Skin" class="cls-4" d="M.986,1.737C.089,2.29-.893,4.372,1.479,6c5.911,4.052,14.429,11.146,15.58,13.481C19.413,24.255,27.43,70.8,27.43,70.8l16.787-.067S28.669,20.545,27.43,17.473C25.571,12.866,29.5,5.851,31.186,2.08,28.535.894,27.3,2.408,25.955,3.923c-1.437,1.614-3.008,3.229-6.574,1.57C14.817,3.37,11.045,0,6.548,0A10.435,10.435,0,0,0,.986,1.737ZM145.527,46.927,120.152,57.449l5.664,14,25.625-18.817a68.957,68.957,0,0,0,17.419-7c1.1-1,2.433-3.036-2.135-2.685s-9.389.515-10.019-1.043,2.134-3.421.86-5.524a.606.606,0,0,0-.556-.3Q154.757,36.084,145.527,46.927Z" transform="translate(169.929 148.35) rotate(180)"/>
      <path id="Coat_Back" data-name="Coat Back" class="cls-8" d="M0,89.7l6.816,1.792c27.616-19.934,41.89-61.621,75.336-81.44L75.4,0C20.21,1.983,2.13,52.774,0,89.7Z" transform="matrix(-0.996, 0.087, -0.087, -0.996, 102.61, 96.464)"/>
      <path id="Shirt" class="cls-9" d="M63.663,91.579H2.2c-2.809,0-2.279-4.055-1.873-6.1C5.012,61.859,23.3,36.4,23.3,2.78L41.032,0C55.7,23.584,60.768,52.622,63.663,91.579Z" transform="translate(61.41 2.822)"/>
      <path id="Coat_Front" data-name="Coat Front" class="cls-10" d="M.082,0C-1.336,45.853,16.025,81.139,30.553,102.414a9.323,9.323,0,0,0-7.979,4.9c-6.479,11.692-4.14,18.13,2.786,20.246s13.1-2.243,24.134-2.243a8.6,8.6,0,0,0,1.316-.094l5.883-.336S80.579,43.938,69.869,16.87H21.287A154.155,154.155,0,0,0,13.263,0Z" transform="translate(153.272 128.141) rotate(180)"/>
      <path id="Shade" class="cls-11" d="M18.158,0H0C3.33,8,7,17.875,10.918,29.358,12.548,15.207,14.983,5.33,18.157,0Z" transform="translate(131.985 111.271) rotate(180)"/>
    </g>
    <path id="Path_1" data-name="Path 1" class="cls-12" d="M-4915.231,3968.312c7.059-3.708,7.777-3.043,7.777-3.043s1.148,11.631,2.705,14.033a8.768,8.768,0,0,0,3.12,3.14s-6.67,3.623-8.868,2.1-4.279-4.764-4.37-7.234S-4915.231,3968.312-4915.231,3968.312Z" transform="translate(5025.377 -3914.435)"/>
    <path id="Path_3" data-name="Path 3" class="cls-13" d="M-4917.756,3970.666s-3.019,7.222-3.966,8.347-5.652,3.547-6.865,4.79" transform="translate(5052.231 -3915.505)"/>
  </g>
</svg>
