<svg xmlns="http://www.w3.org/2000/svg" width="204" height="348.491" viewBox="0 0 204 348.491">
  <defs>
    <style>
      .cls-1 {
        fill: #997659;
      }

      .cls-2 {
        fill: #b28b67;
      }

      .cls-3 {
        fill: #e4e4e4;
      }

      .cls-4 {
        fill: #e87613;
      }

      .cls-5 {
        fill: #ff9b21;
      }

      .cls-6 {
        fill: #191847;
      }

      .cls-7, .cls-9 {
        fill: none;
        stroke: #7cd4c0;
        stroke-linecap: round;
      }

      .cls-7 {
        stroke-linejoin: round;
      }

      .cls-8 {
        fill: #50e3c2;
        stroke: #50e3c2;
      }

      .cls-10 {
        fill: #db2721;
      }

      .cls-11 {
        fill: #dde3e9;
      }

      .cls-12 {
        fill: #ff4133;
      }
    </style>
  </defs>
  <g id="Group_35" data-name="Group 35" transform="translate(0)">
    <g id="Bottom_Standing_Baggy_Pants" data-name="Bottom/Standing/Baggy Pants" transform="translate(5.343 162.161)">
      <path id="Leg" class="cls-1" d="M74.064,0,35.8,96.85,10.134,178.728H0L39.235,0Z" transform="translate(29.479)"/>
      <path id="Leg-2" data-name="Leg" class="cls-2" d="M38.111,0c.407,34.034,6.35,79.855,7.3,81.976s65.549,53.957,65.549,53.957l-6.98,7.47S27.757,98.96,24.23,93.033,9.219,32.559,0,0Z" transform="translate(73.138)"/>
      <g id="Left_Shoe" data-name="Left Shoe" transform="translate(194.59 139.753) rotate(130)">
        <path id="shoe" class="cls-3" d="M3.488,12.448a1.559,1.559,0,0,1-2-1.051L0,6.155A50.084,50.084,0,0,1,.7,0H44.675S46.389,5.666,42.7,6.118s-6.135.816-6.135.816L16.123,16.045a.78.78,0,0,1-1.038-.415l-1.314-3.187s-3.419-1.6-5.556-1.6Z" transform="translate(0 0)"/>
      </g>
      <g id="Right_Shoe" data-name="Right Shoe" transform="translate(0 170.216)">
        <path id="shoe-2" data-name="shoe" class="cls-3" d="M41.584,4a1.559,1.559,0,0,1,2,1.051l1.488,5.242a50.084,50.084,0,0,1-.7,6.155H.4s-1.714-5.666,1.979-6.118,6.135-.816,6.135-.816L28.949.4a.78.78,0,0,1,1.038.415L31.3,4s3.419,1.6,5.556,1.6Z" transform="translate(0 -0.332)"/>
      </g>
      <path id="Pant" class="cls-4" d="M48.184,170.295,0,165.066,35.71,0H78.867Z" transform="translate(29.632 0)"/>
      <path id="Pant-2" data-name="Pant" class="cls-5" d="M104.734,123.882l-31.606,37.41S23.193,106.755,14.9,90.121,0,0,0,0H48.587S52.2,64.651,53.457,67.659,104.734,123.882,104.734,123.882Z" transform="translate(69.397)"/>
    </g>
    <g id="Group_33" data-name="Group 33" transform="translate(75.363 0)">
      <g id="Head_Front_Airy" data-name="Head/Front/Airy" transform="translate(0)">
        <g id="Head" transform="translate(0 29.626)">
          <path id="Head-2" data-name="Head" class="cls-2" d="M0,0,6.441,30.023C2.849,34.24.418,39.408.824,45.2c1.171,16.684,24.4,13.014,28.913,4.593s3.981-29.781-1.857-31.286c-2.329-.6-7.289.87-12.338,3.913L18.711,0Z" transform="translate(32.744 56.912) rotate(180)"/>
        </g>
        <path id="hair" class="cls-6" d="M11.16,27.041c2.466-.4,9.106-.682,10.33-.682.783,0,1.631.179,2.094-.54.38-.588.241-1.584.354-2.266.132-.793.318-1.576.507-2.357a23.966,23.966,0,0,1,2.489-6.322,19.431,19.431,0,0,1,9.21-8.339A29.576,29.576,0,0,1,50.128,4.612c5.019.407,9.562,2.063,14.3,3.623A29.97,29.97,0,0,0,78.4,9.58c4.758-.731,8.354-3.31,12.367-5.758A23.039,23.039,0,0,1,104.425.054a26.31,26.31,0,0,1,12.462,4.725c3.508,2.34,6.4,5.155,8.036,9.117,1.758,4.262,1.756,8.941-1.135,12.707-4.19,5.46-11.969,6.872-18.441,6.731a35.233,35.233,0,0,1-10.954-2.007c-4.713-1.658-8.786-4.468-13.2-6.747A34.337,34.337,0,0,0,74.749,22c-2.176-.614-4.318-.9-6.288.418a29.7,29.7,0,0,1-6.335,3.627,20.431,20.431,0,0,1-7.146,1.283c-4.741-.037-9.414-1.514-14.018-2.5-3.755-.807-7.772-1.611-11.6-.835-1.6.324-3.93.992-4.507,2.652,9.71,1.76,13.523,13.768,10.786,22.583-1.477,4.758-10.358,10.32-13.811,7.819-2.188-1.585-.859-3.665,0-5.038,1.646-2.63,2.209-6.008-.837-7.839-2.627-1.579-5.389,2.171-5.442,2.167-.722-.057-6.961-3.585-11.26-8.734C.051,37.848-.593,35.052.42,32.765S7.753,27.6,11.16,27.041Z" transform="translate(2.511)"/>
      </g>
      <path id="Path_27" data-name="Path 27" class="cls-7" d="M-4910.825,3961.086l-10.686,3.5Z" transform="translate(4929.155 -3915.021)"/>
      <path id="Path_28" data-name="Path 28" class="cls-8" d="M-4915.231,3968.22c6.85-3.6,7.548-2.954,7.548-2.954s1.114,11.288,2.625,13.619a8.513,8.513,0,0,0,3.028,3.047s-6.473,3.516-8.606,2.039-4.153-4.624-4.241-7.021S-4915.231,3968.22-4915.231,3968.22Z" transform="translate(4915.464 -3915.933)"/>
      <path id="Path_29" data-name="Path 29" class="cls-9" d="M-4918.074,3970.666s-2.931,7.009-3.85,8.1-5.485,3.442-6.663,4.649" transform="translate(4941.92 -3917.133)"/>
    </g>
    <g id="Body_Jacket_2" data-name="Body/Jacket 2" transform="translate(0 73.284)">
      <path id="Skin" class="cls-2" d="M24.783,2.91C23.72,4.7,22.512,6.485,18.841,5.573,12.29,3.946,6.735-.229.627,5.4c-.751.692-1.3,2.856,1.26,3.966,6.379,2.765,15.8,7.942,17.332,9.952Q22.346,23.432,38.6,66.268L54.574,63.1q-24.1-44.913-25.848-47.608C26.1,11.448,28.55,4.04,29.454.139A4.922,4.922,0,0,0,28.341,0C26.418,0,25.649,1.455,24.783,2.91ZM152.806,69.685l28.249,12.406a66.946,66.946,0,0,0,14.336,11.244c1.378.439,3.732.571,1.22-3.1s-4.989-7.641-3.985-8.927,3.911.133,5.06-1.958q1.149-2.091-14.7-5L161.826,58.129Z" transform="translate(197.763 130.197) rotate(180)"/>
      <path id="Coat_Back" data-name="Coat Back" class="cls-10" d="M0,77.027l6.615,1.739c15.869-12.91,24.821-46.478,34.964-50.137,9.59-3.46,22.294,1.812,37.336,8.745L84.6,27.164C71.826,10.663,42.893-4.864,30.064,1.433,9.553,11.5,1.377,53.152,0,77.027Z" transform="matrix(-0.996, 0.087, -0.087, -0.996, 106.482, 80.891)"/>
      <path id="Shirt" class="cls-11" d="M61.785,88.877H2.135c-2.726,0-2.212-3.936-1.818-5.922,4.547-22.921,22.3-47.629,22.3-80.257L39.821,0C54.053,22.888,58.974,51.069,61.785,88.877Z" transform="translate(67.372)"/>
      <path id="Coat_Front" data-name="Coat Front" class="cls-12" d="M0,2.449q12.08,74.924,69.969,110.6h6.812S99.951,34.065,89.557,7.8H35.863a196.016,196.016,0,0,0,7.3,39.579Q24.927,14.474,12.5,0Z" transform="translate(178.273 113.045) rotate(180)"/>
    </g>
  </g>
</svg>
