<svg xmlns="http://www.w3.org/2000/svg" width="42.034" height="30.212" viewBox="0 0 42.034 30.212">
  <defs>
    <style>
      .cls-1 {
        fill: #c81912;
      }
    </style>
  </defs>
  <path id="phone-alt-solid" class="cls-1" d="M40.835,21.356l-9.2-2.832a2.506,2.506,0,0,0-2.3.407l-4.072,3.576C18.878,20.34,13.735,16.644,10.722,12.05L15.7,9.124a1.177,1.177,0,0,0,.566-1.652L12.323.862a2.253,2.253,0,0,0-2.258-.82L1.527,1.458C.633,1.607,0,2.179,0,2.838c0,15.136,17.068,27.38,38.094,27.38a1.946,1.946,0,0,0,1.921-1.1l1.97-6.137C42.2,22.313,41.713,21.63,40.835,21.356Z" transform="translate(0 -0.006)"/>
</svg>
