<svg xmlns="http://www.w3.org/2000/svg" width="13.639" height="9.803" viewBox="0 0 13.639 9.803">
  <defs>
    <style>
      .cls-1 {
        fill: #2b580c;
      }
    </style>
  </defs>
  <path id="phone-alt-solid" class="cls-1" d="M13.25,6.933l-2.983-.919a.813.813,0,0,0-.746.132L8.2,7.307a9.018,9.018,0,0,1-4.72-3.393l1.614-.95a.382.382,0,0,0,.184-.536L4,.284A.731.731,0,0,0,3.266.018L.5.477C.205.526,0,.711,0,.925,0,5.836,5.538,9.809,12.36,9.809a.631.631,0,0,0,.623-.356l.639-1.991C13.691,7.244,13.534,7.022,13.25,6.933Z" transform="translate(0 -0.006)"/>
</svg>
