<svg xmlns="http://www.w3.org/2000/svg" width="289.624" height="288.957" viewBox="0 0 289.624 288.957">
  <defs>
    <style>
      .cls-1 {
        fill: #c81912;
      }

      .cls-2 {
        fill: #ff4133;
      }
    </style>
  </defs>
  <g id="Group_43" data-name="Group 43" transform="translate(-2774.454 741.682)">
    <path id="Path_68" data-name="Path 68" class="cls-1" d="M482.388,283.318v-5.3c-32.868,0-25.948,0-28.514-13.839,10.177-6.631,18.365-9.918,43.42-16.636l-2.1-7.842c-50.4,13.493-44.688,8.851-49.993-1.643,4.382-4.267,9.658-7.842,21.595-14.733l-2.566-4.642c-11.878,6.833-17.3,10.062-23.267,11.532-6-9.514-15.079-7.9,22.027-45.034l-5.766-5.766c-37.279,37.279-32.781,29.465-45.7,21.277,1.672-5.766,4.469-11.532,11.331-23.526l-4.584-2.624C402.44,201.9,406.1,196.363,393.5,191.837c-.49-11.532.894-20.441,7.352-44.6l-7.842-2.076c-13.378,49.936-13.464,41.748-27.217,41.056-1.7-6.285-2.22-12.57-2.22-27.188h-5.161c0,14.589,0,20.758-1.874,27.159-11.533.548-14.79,9.543-28.6-42.036l-7.842,2.076c6.689,25,9.14,33.185,7.583,45.928a94.874,94.874,0,0,0-9.255,4.094c-4.238-4.411-7.842-9.687-14.7-21.594l-4.613,2.652c6.862,11.878,10.091,17.3,11.677,23.267-9.543,6.026-7.929,15.05-45.034-22.056l-5.766,5.766c43.449,43.477,30.129,53.049-2.249,34.367l-2.652,4.613c11.907,6.862,17.3,9.918,21.8,14.416-4.959,9.658.894,16.434-49.186,2.883l-2.1,7.842c24.074,6.458,32.666,8.505,42.411,15.54a97.75,97.75,0,0,0-1.355,11.677c-6.256,1.73-12.542,2.249-27.159,2.249v5.3c14.589,0,20.73,0,27.159,1.874.548,11.532,9.514,14.762-42.065,28.6l2.1,7.842c50.4-13.522,44.688-8.851,50.022,1.643-4.411,4.267-9.687,7.842-21.623,14.733l2.652,4.584c11.878-6.862,17.3-10.062,23.3-11.532,6,9.572,15.05,7.929-22.056,45.063l5.766,5.766c37.077-37.077,32.723-29.523,45.7-21.277-1.672,5.766-4.469,11.532-11.331,23.5l4.613,2.652c6.862-11.907,9.889-17.3,14.416-21.8,9.63,4.959,16.434-.894,2.883,49.186l7.842,2.1c6.429-24.045,8.505-32.637,15.54-42.411,12.6,2.22,13.925-4.094,13.925,28.543h5.3c0-32.9,0-25.948,13.839-28.514,6.6,10.149,9.918,18.337,16.607,43.247l7.871-2.1c-6.718-25-9.168-33.156-7.583-45.928,10.264-3.892,8.332-9.514,23.959,17.529l4.584-2.652c-15.8-27.39-12.916-21.306-2.076-30.157,10.437,5.391,17.472,10.985,35.434,28.831l5.766-5.766c-37.048-37.048-29.494-32.695-21.249-45.7,5.766,1.7,11.533,4.469,23.5,11.331l2.652-4.584c-11.907-6.891-17.3-9.918-21.8-14.416,4.93-9.659-.894-16.434,49.186-2.883l2.1-7.842c-24.045-6.458-32.637-8.505-42.411-15.54C456.181,284.616,449.838,283.318,482.388,283.318Z" transform="translate(2559.201 -876.572)"/>
    <g id="Group_41" data-name="Group 41" transform="translate(2774.454 -741.682)">
      <path id="Path_69" data-name="Path 69" class="cls-1" d="M305.306,154.654c-1.269,4.959-8.073,7.467-15.223,5.622s-11.85-7.352-10.552-12.311,8.1-7.5,15.223-5.622S306.6,149.7,305.306,154.654Z" transform="translate(-112.18 -139.456)"/>
      <path id="Path_70" data-name="Path 70" class="cls-1" d="M323.807,173.536c-3.316,3.892-10.552,3.229-16.174-1.528s-7.467-11.792-4.181-15.684,10.552-3.229,16.174,1.528S327.123,169.615,323.807,173.536Z" transform="translate(-69.79 -116.734)"/>
      <path id="Path_71" data-name="Path 71" class="cls-1" d="M327.076,200.381c-5.045.894-10.149-4.238-11.532-11.532s1.759-13.839,6.8-14.733,10.177,4.267,11.533,11.532S332.122,199.487,327.076,200.381Z" transform="translate(-44.574 -78.651)"/>
      <path id="Path_72" data-name="Path 72" class="cls-1" d="M320.174,225c-4.844-1.73-6.746-8.649-4.3-15.655s8.361-11.187,13.2-9.457,6.718,8.649,4.267,15.627S324.989,226.7,320.174,225Z" transform="translate(-45.341 -30.67)"/>
      <path id="Path_73" data-name="Path 73" class="cls-1" d="M303.9,242.679c-3.575-3.662-2.191-10.812,3.114-15.915s12.455-6.285,16-2.624,2.162,10.812-3.114,15.915S307.442,246.369,303.9,242.679Z" transform="translate(-69.629 11.732)"/>
      <path id="Path_74" data-name="Path 74" class="cls-1" d="M279.9,246.7c-1.038-5.017,3.979-10.264,11.215-11.734s13.868,1.442,14.877,6.458-4.008,10.264-11.215,11.734S280.908,251.72,279.9,246.7Z" transform="translate(-111.338 35.414)"/>
      <path id="Path_75" data-name="Path 75" class="cls-1" d="M254.71,241.049c1.1-4.988,7.813-7.784,14.992-6.2s12.109,6.919,11.014,11.907-7.813,7.784-14.992,6.2S253.614,246.066,254.71,241.049Z" transform="translate(-158.803 35.072)"/>
      <path id="Path_76" data-name="Path 76" class="cls-1" d="M234.73,225.65c2.883-4.325,10-4.613,16.2-.663s9.024,10.668,6.285,14.992-10,4.584-16.232.663S231.847,229.975,234.73,225.65Z" transform="translate(-198.244 12.096)"/>
      <path id="Path_77" data-name="Path 77" class="cls-1" d="M226.433,200.589c4.786-1.845,10.812,2.249,13.435,9.111s.894,13.925-3.892,15.771-10.783-2.278-13.406-9.139S221.676,202.406,226.433,200.589Z" transform="translate(-221.345 -29.443)"/>
      <path id="Path_78" data-name="Path 78" class="cls-1" d="M234.524,174.9c4.959,1.24,7.525,8.044,5.766,15.165s-7.265,11.907-12.224,10.668-7.554-8.044-5.766-15.194S229.565,173.635,234.524,174.9Z" transform="translate(-220.613 -77.363)"/>
      <path id="Path_79" data-name="Path 79" class="cls-1" d="M254.355,154.966c3.69,3.575,2.566,10.725-2.537,16.03s-12.224,6.718-15.915,3.171-2.537-10.725,2.537-16.03S250.693,151.42,254.355,154.966Z" transform="translate(-198.004 -118.202)"/>
      <path id="Path_80" data-name="Path 80" class="cls-1" d="M280.294,146.882c1.413,4.93-3.143,10.581-10.206,12.628s-13.954-.288-15.4-5.218,3.171-10.552,10.235-12.6S278.882,141.894,280.294,146.882Z" transform="translate(-159.045 -140.938)"/>
      <path id="Path_81" data-name="Path 81" class="cls-1" d="M286.8,153.056c.144,3.489-3.806,6.487-8.822,6.689s-9.2-2.451-9.341-5.939,3.806-6.487,8.822-6.689S286.652,149.683,286.8,153.056Z" transform="translate(-132.305 -129.323)"/>
      <path id="Path_82" data-name="Path 82" class="cls-1" d="M306.37,163.957c-1.557,3.143-6.458,3.863-10.956,1.643s-6.891-6.545-5.363-9.687,6.458-3.863,10.956-1.643S307.9,160.815,306.37,163.957Z" transform="translate(-92.832 -118.256)"/>
      <path id="Path_83" data-name="Path 83" class="cls-1" d="M317.4,184.082c-2.883,1.961-7.525,0-10.321-4.008s-2.739-9.139.173-11.071,7.525,0,10.322,4.008S320.287,182.121,317.4,184.082Z" transform="translate(-63.762 -89.511)"/>
      <path id="Path_84" data-name="Path 84" class="cls-1" d="M317.753,206.544c-3.489,0-6.256-4.18-6.141-9.2s2.883-9.024,6.487-8.966,6.256,4.181,6.141,9.2S321.386,206.631,317.753,206.544Z" transform="translate(-51.368 -51.601)"/>
      <path id="Path_85" data-name="Path 85" class="cls-1" d="M307.512,224.914c-2.883-1.989-2.883-6.92,0-11.071s7.467-5.91,10.35-3.95,2.883,6.948,0,11.1S310.4,226.875,307.512,224.914Z" transform="translate(-63.154 -12.597)"/>
      <path id="Path_86" data-name="Path 86" class="cls-1" d="M290.132,237.231c-1.932-2.883,0-7.525,4.065-10.293s9.139-2.652,11.071.259,0,7.525-4.065,10.293S292.064,240.143,290.132,237.231Z" transform="translate(-93.23 17.238)"/>
      <path id="Path_87" data-name="Path 87" class="cls-1" d="M268.8,238.922c-.519-3.46,3.114-6.833,8.073-7.554s9.4,1.5,9.918,4.959-3.143,6.833-8.1,7.554S269.292,242.382,268.8,238.922Z" transform="translate(-132.071 29.097)"/>
      <path id="Path_88" data-name="Path 88" class="cls-1" d="M248.949,228.251c1.615-3.114,6.545-3.719,10.985-1.384s6.718,6.718,5.1,9.831-6.545,3.69-10.985,1.355S247.334,231.336,248.949,228.251Z" transform="translate(-170.341 18.203)"/>
      <path id="Path_89" data-name="Path 89" class="cls-1" d="M234.691,210.841c2.566-2.393,7.41-1.355,10.841,2.335s4.123,8.649,1.557,10.956-7.41,1.326-10.812-2.335S232.154,213.291,234.691,210.841Z" transform="translate(-199.071 -11.728)"/>
      <path id="Path_90" data-name="Path 90" class="cls-1" d="M233.6,188.28c3.489,0,6.4,3.921,6.516,8.938s-2.652,9.139-6.141,9.226-6.4-3.95-6.516-8.966S230.115,188.338,233.6,188.28Z" transform="translate(-209.832 -51.789)"/>
      <path id="Path_91" data-name="Path 91" class="cls-1" d="M243.214,168.044c3.287,1.211,4.555,6,2.883,10.7s-5.766,7.583-9.053,6.4-4.555-5.968-2.883-10.7S239.927,166.862,243.214,168.044Z" transform="translate(-198.598 -90.397)"/>
      <path id="Path_92" data-name="Path 92" class="cls-1" d="M263.864,154.922c1.989,2.883.259,7.5-3.863,10.35s-9.082,2.883-11.071,0-.259-7.5,3.863-10.379S261.874,152.039,263.864,154.922Z" transform="translate(-170.956 -118.705)"/>
    </g>
    <g id="Group_42" data-name="Group 42" transform="translate(2833.86 -678.566)">
      <path id="Path_93" data-name="Path 93" class="cls-2" d="M317.03,224.967c0,5.766-11.763,10.466-26.265,10.466s-26.265-4.7-26.265-10.466,11.763-10.437,26.265-10.437S317.03,219.2,317.03,224.967Z" transform="translate(-199.485 -65.473)"/>
      <path id="Path_94" data-name="Path 94" class="cls-2" d="M303.159,171.479c0,4.844-9.831,8.649-21.969,8.649s-21.969-3.892-21.969-8.649,9.831-8.649,21.969-8.649S303.159,166.665,303.159,171.479Z" transform="translate(-209.428 -162.83)"/>
      <path id="Path_95" data-name="Path 95" class="cls-2" d="M279.03,239.08c-4.5,3.575-15.482-2.71-24.506-14.07s-12.686-23.469-8.188-27.044,15.511,2.681,24.535,14.041S283.586,235.476,279.03,239.08Z" transform="translate(-237.311 -98.557)"/>
      <path id="Path_96" data-name="Path 96" class="cls-2" d="M311.49,197.38c5.766,2.739,5.91,13.925.548,25.025s-14.416,17.847-19.951,15.136-5.766-13.954-.548-25.054S305.925,194.727,311.49,197.38Z" transform="translate(-155.657 -98.864)"/>
      <path id="Path_97" data-name="Path 97" class="cls-2" d="M268.01,171.856c5.766,2.739,5.766,13.954.548,25.025s-14.416,17.875-19.951,15.136-5.766-13.954-.548-25.025S262.33,169.117,268.01,171.856Z" transform="translate(-237.535 -146.975)"/>
      <path id="Path_98" data-name="Path 98" class="cls-2" d="M298.779,176.837c4.065-.865,8.649,4.844,10.379,12.772s-.231,15.021-4.267,15.886-8.649-4.872-10.379-12.772S294.743,177.7,298.779,176.837Z" transform="translate(-144.157 -136.617)"/>
      <path id="Path_99" data-name="Path 99" class="cls-2" d="M282.827,166.387c3.056-2.883,9.947-.173,15.367,5.766s7.41,13.089,4.354,15.857-9.947.2-15.4-5.766S279.771,169.155,282.827,166.387Z" transform="translate(-167.704 -158.314)"/>
      <path id="Path_100" data-name="Path 100" class="cls-2" d="M283.071,195.956a12.686,12.686,0,1,1-12.686-12.686A12.686,12.686,0,0,1,283.071,195.956Z" transform="translate(-212.291 -124.339)"/>
      <path id="Path_101" data-name="Path 101" class="cls-2" d="M295.379,184.985a11.734,11.734,0,1,1-11.734-11.705,11.734,11.734,0,0,1,11.734,11.705Z" transform="translate(-185.532 -143.151)"/>
      <path id="Path_102" data-name="Path 102" class="cls-2" d="M298.716,193.623a7.813,7.813,0,1,1-7.813-7.813A7.813,7.813,0,0,1,298.716,193.623Z" transform="translate(-164.478 -119.556)"/>
      <path id="Path_103" data-name="Path 103" class="cls-2" d="M288.426,204.313a7.323,7.323,0,1,1-7.323-7.323,7.323,7.323,0,0,1,7.323,7.323Z" transform="translate(-182.01 -98.503)"/>
      <circle id="Ellipse_19" data-name="Ellipse 19" class="cls-2" cx="10.754" cy="10.754" r="10.754" transform="translate(48.292 102.87)"/>
      <circle id="Ellipse_20" data-name="Ellipse 20" class="cls-2" cx="7.813" cy="7.813" r="7.813" transform="translate(100.073 118.986)"/>
      <path id="Path_104" data-name="Path 104" class="cls-2" d="M268.372,179.551a4.411,4.411,0,1,1-4.411-4.411A4.411,4.411,0,0,1,268.372,179.551Z" transform="translate(-208.807 -139.649)"/>
      <path id="Path_105" data-name="Path 105" class="cls-2" d="M266.786,196.713a6.833,6.833,0,1,1-6.833-6.833,6.833,6.833,0,0,1,6.833,6.833Z" transform="translate(-220.915 -111.892)"/>
      <path id="Path_106" data-name="Path 106" class="cls-2" d="M285.586,194.673a6.833,6.833,0,1,1-6.833-6.833A6.833,6.833,0,0,1,285.586,194.673Z" transform="translate(-185.513 -115.733)"/>
      <path id="Path_107" data-name="Path 107" class="cls-2" d="M304.458,184.875a10.264,10.264,0,1,1-10.235-10.235,10.264,10.264,0,0,1,10.235,10.235Z" transform="translate(-162.897 -140.59)"/>
      <path id="Path_108" data-name="Path 108" class="cls-2" d="M306.725,198.152a4.382,4.382,0,1,1-4.382-4.382,4.382,4.382,0,0,1,4.382,4.382Z" transform="translate(-136.476 -104.566)"/>
      <path id="Path_109" data-name="Path 109" class="cls-2" d="M265.205,220.831a5.363,5.363,0,1,1-1.56-3.81,5.363,5.363,0,0,1,1.56,3.81Z" transform="translate(-218.354 -63.759)"/>
      <circle id="Ellipse_21" data-name="Ellipse 21" class="cls-2" cx="5.363" cy="5.363" r="5.363" transform="translate(0 77.008)"/>
    </g>
  </g>
</svg>
